<svg xmlns="http://www.w3.org/2000/svg" viewBox="0 0 500 500" enable-background="new 0 0 500 500"><path d="M319.2 0c-99.6 0-180.7 81.1-180.7 180.7 0 42.8 15 82.3 40 113.3-3.2 1.1-6.2 2.9-8.7 5.4L7.1 459.9c-9.2 9.1-9.3 23.9-.2 33.2 4.6 4.6 10.6 6.9 16.7 6.9 5.9 0 11.8-2.2 16.4-6.7l162.8-160.5c2.7-2.7 4.7-5.9 5.8-9.3 30.5 23.8 69 37.9 110.7 37.9 99.6 0 180.7-81.1 180.7-180.8C499.9 81.1 418.8 0 319.2 0zm0 342.7c-89.3 0-161.9-72.6-161.9-162 0-89.3 72.6-161.9 161.9-161.9s161.9 72.6 161.9 161.9c0 89.4-72.6 162-161.9 162zM319.3 54.1c-71.1 0-129 57.9-129 129s57.9 129 129 129 129-57.9 129-129-57.9-129-129-129zm0 248.7c-66 0-119.7-53.7-119.7-119.7S253.3 63.4 319.3 63.4 439 117.1 439 183.1s-53.7 119.7-119.7 119.7zM357.2 171.7v18.7h-27v27.2h-18.8v-27.2h-27.1v-18.7h27.1v-27.2h18.8v27.2z"/></svg>